# xmcd
#
# Track frame offsets: 
#        150
#        12420
#        23869
#        36528
#        49569
#        62655
#        74357
#        86000
#        98912
#        114085
#        128061
#        137520
#        149424
#        165385
#        178398
#        190866
#        203766
#        221081
#        234243
#        249144
#        267492
#        279138
#        290416
#        301361
#        313402
#
# Disc length: 4354 seconds
#
# Revision: 2
# Processed by: cddbd v1.5.1PL0 Copyright (c) Steve Scherf et al.
# Submitted via: ExactAudioCopy v0.90b4
#
DISCID=6c110019
DTITLE=Sonny Terry and Brownie McGhee - Sportin' Life Blues [CD1]
DYEAR=2003
DGENRE=Blues
TTITLE0=Harmonica Blues [1940]
TTITLE1=Harmonica and Washboard Breakdown [1940]
TTITLE2=Harmonica Stomp [1940]
TTITLE3=Blowin' The Blues [1940]
TTITLE4=Born For Bad Luck [1940]
TTITLE5=Dealing With The Devil [1941]
TTITLE6=Million Lonesome Women [1941]
TTITLE7=Goodbye Now [1941]
TTITLE8=The Red Cross Store [1941]
TTITLE9=Sweet Woman [1944]
TTITLE10=Fox Chase [1944]
TTITLE11=Glory [1944]
TTITLE12=Lonesome Train [1944]
TTITLE13=Watch Out (That's The Stuff) [1944]
TTITLE14=Run Away Woman (Hootin' The Blues) [1944]
TTITLE15=Shake Down [1944]
TTITLE16=Rock Me Momma [1946]
TTITLE17=Chain Gang Special [1946]
TTITLE18=Pick A Bale Of Cotton [1946]
TTITLE19=Red River [1946]
TTITLE20=Brownie's Guitar Boogie [1946]
TTITLE21=Worried Life Blues [1946]
TTITLE22=Lovin' With A Feeling [1946]
TTITLE23=Mean Ole Frisco [1946]
TTITLE24=Sportin' Life Blues [1946]
EXTD=
EXTT0=
EXTT1=
EXTT2=
EXTT3=
EXTT4=
EXTT5=
EXTT6=
EXTT7=
EXTT8=
EXTT9=
EXTT10=
EXTT11=
EXTT12=
EXTT13=
EXTT14=
EXTT15=
EXTT16=
EXTT17=
EXTT18=
EXTT19=
EXTT20=
EXTT21=
EXTT22=
EXTT23=
EXTT24=
PLAYORDER=
